<svg xmlns="http://www.w3.org/2000/svg" xmlns:xlink="http://www.w3.org/1999/xlink" version="1.1" x="0px" y="0px" viewBox="0 0 100 125" style="enable-background:new 0 0 100 100;" xml:space="preserve"><g><path d="M29.0170898,66.345459l-0.869812-0.0396729c-3.9788208-0.1862183-6.9900513-0.5599365-9.3218384-1.541687   c3.133728,4.8052979,8.0143433,8.2633667,13.678894,9.1227417c5.4368896,0.8262939,9.4951172,0.0985718,12.8327637-1.2561035   C43.0501099,66.9993286,36.2236938,66.6731567,29.0170898,66.345459z"/><path d="M12.041687,49.6294556c0.2111206-1.1516724,0.618042-2.2387085,1.1699829-3.2454834   c-1.7446899,0.350708-3.2390137,0.7731323-4.427002,1.1658325C9.9142456,48.0076294,11.0526123,48.6925049,12.041687,49.6294556z"/><path d="M21.7313232,48.6768799c-0.0487671-0.0059204-0.0969849-0.008606-0.1447144-0.008606   c-0.6318359,0-1.1784668,0.4753418-1.2524414,1.1173706c-0.0792847,0.6907959,0.4180298,1.3178101,1.1088257,1.3971558   c0.6940308,0.0825195,1.3178101-0.4185791,1.3971558-1.1088257C22.9199829,49.3831787,22.4221191,48.7561646,21.7313232,48.6768799   z"/><path d="M54.5465088,61.8770142c-1.8719482,1.3108521-4.4395142,3.1082764-7.6705322,3.1082764   c-1.2175903,0-2.5289917-0.2550659-3.9336548-0.8874512c-3.9229126-1.7663574-6.4598999-5.5563965-6.4615479-9.6561279   c0-0.3312378,0.0144653-0.6549072,0.0429077-0.9754028c0.0841064-0.9463501,0.3255615-1.8624268,0.6907349-2.7283936   c-0.7000122-0.3629761-1.399292-0.7271118-2.0884399-1.1124878l-8.3656006-4.6838989   c-2.3896484-1.3370972-5.2514648-1.3392944-7.6539917-0.0053711c-2.34729,1.3027954-3.8231812,3.6656494-3.9480591,6.3200684   l-0.0117798,0.2850952c-0.1072998,3.0776367,0.4318848,6.0537109,1.4586792,8.7909546   c2.0474854,2.7818604,5.3114014,3.4841919,11.6449585,3.7805786l0.8665771,0.0396118   c7.2647705,0.3303833,15.3983154,0.7219849,18.2156372,7.5591431c1.9060059-0.9818115,3.5888062-2.1299438,5.192627-3.2321167   c0.7141113-0.4910278,1.4185791-0.9743652,2.1237793-1.4265137c-0.4678955-0.0481567-0.7555542-0.0808716-0.8166504-0.0880127   c-0.9030151-0.1039429-1.5509644-0.9207153-1.4469604-1.8242188c0.1044922-0.9035645,0.9287109-1.5509644,1.8237305-1.4470215   c0.0786743,0.0093994,6.9684448,0.7906494,13.5910034,0.7581177c10.7957764-0.2368774,18.2919922-0.8996582,23.3903809-1.6155396   c-9.1748047-0.7943115-22.3566284-2.2651367-31.9909058-4.6981812   C57.8164673,59.4125977,56.2769165,60.6660767,54.5465088,61.8770142z M25.0213013,50.3247681   c-0.2025757,1.7599487-1.7009888,3.0622559-3.4314575,3.0622559c-0.1312866,0-0.2642212-0.0075073-0.397644-0.0235596   c-1.8928833-0.2175903-3.2562256-1.9352417-3.0391846-3.828064c0.2175903-1.8934326,1.9362793-3.2556763,3.8285522-3.0397339   C23.8760376,46.7138062,25.2388916,48.4313965,25.0213013,50.3247681z"/><path d="M61.8963013,55.4020386c1.5484619,0.3536377,3.1766968,0.6850586,4.8563232,0.9953613   c11.1627808,0.2816162,20.1264648-2.0116577,26.0925903-4.2124634c-8.1074829,0.5994873-19.854187,1.1403809-28.4898682,0.1791382   C63.6241455,53.3756104,62.8014526,54.3909302,61.8963013,55.4020386z"/><path d="M39.0130615,47.9666748c1.0736084-1.1797485,2.4260254-2.1412964,3.9994507-2.7357788   c1.7865601-0.6748657,4.402771-1.7628784,7.7067871-3.3912354c0.6763306-5.0178223,1.8977051-9.5618896,2.8389893-12.5613403   C45.1808472,33.401123,40.8672485,37.772583,38.68396,40.868042c-1.7077637,2.4202271-2.3729858,4.4014282-2.6317139,5.5025024   l0.6820679,0.3818359C37.4858398,47.1731567,38.2477417,47.5740967,39.0130615,47.9666748z"/><path d="M39.8034668,53.7578735c-0.0198364,0.223999-0.0300293,0.4512329-0.0300293,0.6827393   c0.0010986,2.8060913,1.776062,5.4191895,4.5209961,6.6539307c3.1704712,1.428772,5.5649414,0.0450439,8.364624-1.9143066   c0.1137085-0.0795288,0.2150879-0.1660156,0.3275757-0.2463379c-0.7167969,0.1342773-1.4019775,0.2056274-2.0339355,0.2056274   c-0.0509644,0-0.100769-0.0010376-0.1506348-0.0021362c-2.196167-0.036438-3.9684448-0.8370972-4.9904175-2.2540894   c-0.3547974-0.4919434-0.2433472-1.1779175,0.2481079-1.5316162c0.4920044-0.3547974,1.1779785-0.2443848,1.5321655,0.2476196   c0.7781982,1.0782471,2.1951294,1.3258057,3.2471313,1.3440552c2.2022095-0.0007324,5.1796875-0.9690552,7.9891968-3.081665   c1.243042-1.3222046,2.3554688-2.7122803,3.3421631-4.1652222c-2.4987183,1.4658203-5.2339478,2.1519165-7.6732178,2.1519165   c-1.0423584,0-2.02948-0.1237793-2.9207153-0.362793c-0.5852051-0.1570435-0.9324951-0.7593994-0.7754517-1.3446045   c0.1580811-0.5857544,0.7593994-0.9303589,1.3446045-0.7755127c3.8099976,1.0222778,9.722229-0.5042114,13.1494751-5.494812   c0.2598877-0.6377563,0.5175171-1.2766724,0.736084-1.9334717c0.7680054-2.3076782,1.1367188-4.3494873,1.3092651-5.8972168   c-10.8956909,7.1582031-19.0888062,10.7316895-23.1638794,12.2713623   C41.7316895,49.2347412,40.0151367,51.3724976,39.8034668,53.7578735z"/></g><text x="0" y="115" fill="#000000" font-size="5px" font-weight="bold" font-family="'Helvetica Neue', Helvetica, Arial-Unicode, Arial, Sans-serif">Created by Artem  Kovyazin</text><text x="0" y="120" fill="#000000" font-size="5px" font-weight="bold" font-family="'Helvetica Neue', Helvetica, Arial-Unicode, Arial, Sans-serif">from the Noun Project</text></svg>