<svg version="1" xmlns="http://www.w3.org/2000/svg" width="1792" height="1792" viewBox="0 0 1344.000000 1344.000000"><path d="M713 234.5c-1.4.7-6.1 3.1-10.5 5.3-13.3 6.7-17 8.7-17.7 9.7-.4.5-.8.6-.8.2 0-.5-1.2 0-2.7 1.1-1.6 1-6.2 3.7-10.3 5.9-4.1 2.2-11 6.1-15.3 8.7-4.3 2.5-8.2 4.6-8.7 4.6-.6 0-1 .4-1 .9s-1 1.3-2.2 1.7c-1.3.4-2.5 1-2.8 1.3-.3.4-2.3 1.8-4.5 3.1-5.3 3.1-36 23.5-37.7 25-.7.6-5.2 3.9-9.9 7.3s-10.1 7.4-12 8.9c-1.9 1.5-7.4 5.9-12.4 9.9-4.9 3.9-9.7 7.8-10.6 8.7-.9 1-4.1 3.7-7 6.2-3 2.5-12.8 11.9-21.9 21-15.3 15.3-21.1 21.4-28.3 30.1-1.5 1.9-3.5 4.4-4.5 5.5-.9 1.2-2.7 3.4-3.9 5-1.2 1.6-3.8 5.1-5.9 7.9-3.6 4.8-15.7 23-20.2 30.5-3.3 5.5-16.3 31.9-16.7 33.9-.2 1-.8 2.7-1.3 3.7-1.4 2.6-4.1 10.4-4.5 12.9-.1 1.1-.6 2.6-1 3.2-.5.7-.6 1.3-.2 1.3.3 0 .1.8-.4 1.8-2.7 5.1-2.2 6.8 3.2 9.7 9.9 5.3 14.2 7.7 15.5 8.7.6.6 1.2.7 1.2.3 0-.5.8-.1 1.8.7.9.9 4.6 3.1 8.2 4.8 3.6 1.8 8.5 4.3 11 5.5l4.5 2.2 5.6-5.6c8.1-8.1 12.7-12.1 13.9-12.1.5 0 1-.4 1-.8 0-.8 8.5-7.2 9.5-7.2.3 0 1.1-.4 1.8-1 2.6-2.3 11.7-7.9 11.7-7.2 0 .4.4.2.8-.3.9-1.4 11.7-6.2 27.7-12.5 7.2-2.8 14.8-5.9 17-7 2.3-1 5-2 6-2.2 1.1-.1 2.2-.6 2.5-.9.3-.4 3.9-2 8-3.6 7.2-2.9 11.8-4.9 22.5-9.8 2.8-1.3 7.3-3.3 10-4.5 5.3-2.4 18.1-8.4 37.8-17.8 10.7-5.1 11.7-5.8 11.8-8.4.1-1.5.2-3.1.3-3.6.1-.4.6-3.2 1-6.2s1-6.4 1.1-7.5c.4-2 1.5-9.3 2-13 .1-1.1.3-2 .4-2 .1 0 .4-1.6.7-3.5.2-1.9 1.2-7.3 2-12 2.2-11.7 2.3-12.2 2.9-14.8.3-1.2.7-3.2 1-4.5.2-1.2.7-3.5 1.1-5 .3-1.6.7-3.8.8-5 .2-1.2.6-3.1.9-4.2.6-1.8 1.1-4.6 2.3-11 .2-1.1 1.3-6.1 2.5-11 1.1-5 2.2-9.7 2.4-10.5.2-.8.4-1.5.5-1.5.1 0 .3-.9.6-2 .2-1.1 1.5-6.5 3-12 1.4-5.5 2.7-10.7 2.8-11.5.2-.8.6-2.2.9-3 .4-1.3 3.6-12.9 4.2-15.5.1-.6.5-1.7.8-2.5.5-1.3 2.9-9.6 5.7-19.5.5-1.7 1.7-6 2.8-9.8 1.2-3.7 2-6.7 1.9-6.7-.1 0-1.3.7-2.7 1.5zM925.5 348c-4.9 3.2-9.5 6.3-10.2 6.9-.7.6-1.5 1.1-1.9 1.1-.4 0-2.8 1.5-5.4 3.4-2.6 1.8-5.6 3.7-6.8 4-1.2.4-2.2 1.1-2.2 1.4 0 .4-1.7 1.6-3.7 2.7-2.1 1.1-4 2.2-4.3 2.5-.4.5-3.5 2.5-10.1 6.5-.9.5-4.8 2.9-8.5 5.3-3.8 2.3-7.8 4.8-8.9 5.4-1.1.7-5.5 3.4-9.8 6-4.3 2.7-8.2 4.8-8.6 4.8-.5 0-1.1.3-1.3.7-.1.5-1.6 1.6-3.3 2.5-3.4 1.9-14.5 8.4-22 12.9-2.7 1.6-5.9 3.4-7 4-1.1.5-2.9 1.5-4 2.2-1.1.7-5.6 3.2-10 5.6-4.4 2.5-8.2 4.7-8.5 5-.3.3-2.7 1.8-5.5 3.2-5.1 2.6-13.1 7-22 11.9-2.7 1.5-10.2 5.5-16.5 8.7-6.3 3.3-13.2 7-15.3 8.1-2.1 1.2-4.4 2.2-5.1 2.2-.8 0-1.6.4-1.8.9-.2.8-63 32.1-64.2 32.1-.2 0-4.6 2-9.8 4.4-15.8 7.4-19.8 9.1-36.3 16-8.8 3.7-16.9 7.1-18 7.6-1.1.5-5.6 2.3-10 4.1-4.4 1.7-9.3 3.7-11 4.4-1.6.7-4.1 1.6-5.5 2-3.4.9-21.2 9.7-22.8 11.3-.8.6-2.3 1.7-3.5 2.4-6.2 3.3-19.1 15.5-25.8 24.3-4 5.4-10.2 15.2-10.4 16.5 0 .3-.6 1.4-1.2 2.5-1.4 2.7-6.4 16.5-5.8 16.5.2 0-.1 1.5-.6 3.2-3.9 13.4-2.7 38.1 2.7 55 3.3 10.4 12.7 28.5 17.9 34.5.5.6 2.1 2.6 3.5 4.3 3.1 4.1 17.2 18 18.2 18 .4 0 1.8 1.1 3.2 2.5 1.4 1.4 2.9 2.5 3.4 2.5.4 0 1.7.8 2.8 1.7 6.2 5.4 30.3 15.9 40.9 17.7 17.3 3 31.3 2.1 48-3 6-1.9 8.3-2.8 20.5-9 12.3-6.1 16.4-8.7 42.5-26.1 4-2.7 5.1-4.2 2.8-3.8-1 .2-1.8.4-1.8.5 0 .1-1.8.3-4 .5-2.2.1-4 .4-4 .5 0 .4-8 1-17 1.3-28.6.9-54.8-7.1-72.8-22.3-5.1-4.2-11.8-11.9-14.4-16.4-1.5-2.5-1.7-10.5-.4-13.9 1.1-2.9 5.4-7.7 6.9-7.7.6 0 1.2-.5 1.4-1.1.5-1.4 7.9-2.3 12.5-1.4 2.9.5 5.5 2.3 11 7.8 9 9.1 9 9.1 16 12.6 6.8 3.4 13.6 5.4 22.8 6.7 4.6.7 21.6.6 26.6 0 9.3-1.2 18-2.9 24.3-4.7 3.9-1 7.1-1.9 7.1-1.8 0 .1 3.2-1 5.3-1.8 2.1-.8 1.7-.7 7.2-2.2 2.5-.7 5-1.6 5.5-2 .6-.4 4.6-2.2 9-4.1 9.2-4 25.7-12.4 29.9-15.2.6-.4 6.5-4.4 13.2-8.8 6.6-4.4 13.7-9.9 15.6-12.2 2-2.4 5.1-5.9 6.9-7.9 1.9-2 5-5.5 6.9-7.8 1.9-2.3 4.9-5.9 6.7-8 1.7-2 6.5-8.2 10.7-13.6 4.1-5.5 7.9-10.5 8.4-11 .4-.6 2.7-3.8 5.1-7.3l4.3-6.4-6.4 3.4c-3.4 1.8-6.4 3.6-6.6 4-.2.5-.9.8-1.6.8-.7 0-4.1 1.4-7.7 3.1-13.6 6.7-46.8 17.7-49 16.3-.5-.3-.9 0-.9.5 0 .6-.3 1-.7.9-.5-.1-3.9.4-7.8 1.1-3.8.7-8.3 1.4-10 1.6-1.6.2-5 .6-7.5 1s-8.1.8-12.6.9c-4.4.2-8.5.6-9.1.9-.6.4-1.3.4-1.6.1-.3-.4-5-.8-10.4-1-5.4-.2-10.5-.5-11.3-.5-.8-.1-5.3-.8-10-1.6s-9.2-1.6-10-1.7c-14.2-2.3-22-13.3-17.3-24.6 4-9.9 12.6-13 26.2-9.5 9.1 2.3 15.7 2.9 32.6 2.9 18.3.1 27.7-.9 41.5-4.1 3.6-.8 7.6-1.7 8.8-1.9 1.3-.3 6.9-2.1 12.5-4 5.6-2 11.1-3.9 12.2-4.2 4.5-1.3 33.5-16.4 36.2-18.9.7-.6 2.9-2.1 5-3.4 9.1-5.5 29.1-23 38.8-34 3.6-3.9 18-22.4 17.6-22.4-.3 0 1.5-4.7 3.4-9 2.9-6.4 9.2-25 12-35 .9-3.3 1.9-6.7 2.2-7.5.3-.8.7-2 .9-2.5 2.5-10.1 6.4-26.6 6.8-28.5 1.1-6.1 3.6-19.8 4.2-22.5.3-1.7.7-4.4.9-6 .2-1.7.4-3 .5-3 0 0 .3-2.1.5-4.8.2-2.6.1-4.7-.3-4.6-.4 0-4.7 2.7-9.7 5.9z"/><path d="M216.6 467.8c-.3.2-2.4.6-4.8.7-5 .3-7.5.8-17.9 3.4-7.9 1.9-25.1 8.8-25.7 10.3-.2.4-1 .8-1.7.8s-3.6 1.5-6.4 3.4c-2.7 1.9-5.4 3.6-5.9 3.8-5.1 1.9-24.7 21.8-30.9 31.3-2.9 4.4-5.6 8.4-6.1 9-.4.5-.9 1.3-1 1.8-.1.4-1.2 2.8-2.5 5.5-4.2 8.3-8.1 20.5-10.1 31.7-2 10.7-2.6 38.1-1.2 56 .5 5.5.9 12 1.1 14.5.1 2.5.5 5.5.8 6.5.3 1.1.8 4 1.1 6.5.7 4.9 1.3 8.6 2.2 14 .4 1.9.8 4.2.9 5 .2 1.3 2.9 13 3.9 17 .2.8 1 3.5 1.7 6s1.3 4.9 1.5 5.5c.1.5 1 3.7 2 7s1.9 6.4 2 7c.8 2.8 3.5 10.2 4.4 11.7.6 1 1 2.2 1 2.8 0 3.2 19.1 21.6 29.2 28.2 4.6 3 11.7 7 15.8 9 6.6 3.1 23.8 9.4 28 10.3.8.2 4.5 1 8.3 1.9 3.7.9 8.2 1.8 10 2.1 1.7.3 3.9.8 4.7 1 .8.3 3.7.7 6.5 1 2.7.4 5.5 1.1 6.2 1.7.9.7 1.3.7 1.3 0 0-.6 1.4-.7 3.8-.2 3.9.9 14.2 2 31.2 3.5 11 .9 45.2 2.9 69.5 4 11.2.5 27.7 1.4 36 2 3.9.3 11.3.7 16.5 1 5.2.3 10.6.8 12 1.1 1.4.3 5.4.7 9 1 3.6.3 7.6.7 9 1 1.4.2 5 .7 8 1 5.4.5 7.9.9 13 1.9 1.4.3 4.3.7 6.5 1 2.2.3 5.1.7 6.5 1 1.4.3 3.9.8 5.5 1.1 1.7.3 5 1 7.5 1.5 2.5.6 5.2 1.2 6 1.4.8.1 3.5.8 6 1.5s5.2 1.4 6 1.5c.8.2 1.5.4 1.5.5 0 .1 1.1.3 2.5.6 3.3.6 20.7 6.2 24.7 8 1.7.8 3.4 1.4 3.8 1.4.8 0 9.7 4 18 8.2 9.2 4.6 22.3 12.7 28.2 17.5 2.9 2.4 5.5 4.3 5.7 4.3.8 0 19 18.5 21.6 22 1.4 1.9 3 3.9 3.5 4.5.6.6 1.6 2 2.3 3 .6 1.1 2.6 4 4.2 6.5s5.3 9.1 8.1 14.7c2.9 5.7 5.6 10.3 6.1 10.3.4 0 2.6-1.1 4.8-2.5 2.2-1.4 4.3-2.5 4.6-2.5 1.1 0 29-16.8 40.2-24.2 5.6-3.7 10.7-6.8 11.2-6.8.4 0 1-.4 1.2-.8.2-.4 7.3-5.5 15.8-11.2 8.5-5.7 16.1-11 16.8-11.7.7-.7 1.7-1.3 2.2-1.3.5 0 2.9-1.6 5.4-3.5 2.5-1.9 4.6-3.2 4.6-2.7 0 .4.4.2.8-.4.4-.6 2.5-2.3 4.7-3.7 2.2-1.5 3.5-2.7 3-2.8-1.5-.1-6.5-.6-11.6-1.2-4.8-.6-13.9-4.3-13.9-5.7 0-.5-.9-1.1-1.9-1.5-1-.3-2.2-1.3-2.5-2.3-.4-.9-1.8-3.7-3-6.1-2.9-5.6-3-15.5-.2-21.4 3.6-7.4 14.2-15.6 18.7-14.4 1.1.3 2.1.1 2.4-.4.6-.8 4.3-.7 15.5.6l11 1.1c3 .2 7.5.6 10 .9 2.5.2 7.9.7 12 1 4.1.3 9.1.7 11 .9 1.9.3 7.6.7 12.5 1.1 5 .3 11.7.8 15 1 50.5 4 115.5 5.7 168 4.2 12.1-.3 22-.6 22-.7 0 0 7.4-.3 16.5-.6 9.1-.2 19.9-.7 24-.9 4.1-.3 8.6-.5 10-.4 1.4 0 3 .1 3.5.1 1.7 0 24.7-1.2 31-1.7 3.3-.2 12.3-.7 20-1.1 22.4-1.1 24-1.2 24-1.4 0-.1 2.9-.3 6.5-.5 15.2-.7 28.2-1.6 44.5-3.1 2.8-.2 8.4-.6 12.5-.9 4.1-.3 10-.8 13-1.1 3-.3 7.5-.7 10-.9 4.6-.4 16-1.5 21.5-2 2.7-.2 8.5-.8 20-2.1 5.7-.6 13.4-1.4 17.9-1.9 3.9-.4 11.8-1.3 16.6-2 1.4-.2 5-.6 8-1 7.5-.8 16.2-2.4 16.8-3 .3-.3-1.6-.6-4.1-.6-6-.2-6.4-.2-7.2-1.1-.4-.4-1.5-.3-2.5.2s-2 .7-2.2.4c-.5-.4-2.6-.7-15.3-1.8-3.3-.3-8.2-.8-11-1.2-2.7-.3-7.9-.7-11.5-.9-3.6-.2-6.5-.5-6.5-.6 0-.1-1.7-.3-13-1.3-3.8-.3-8.3-.8-10-1.1-1.6-.2-5.7-.7-9-1-3.3-.3-7.1-.7-8.5-1-1.4-.2-5.9-.7-10-1-9.5-.8-14.5-1.3-14.5-1.5 0-.1-1.8-.3-4-.5-3.9-.3-13-1.3-19-2-1.6-.2-5.2-.6-8-1-4.8-.5-7.1-.8-17.5-2-8.6-1-14.5-1.6-17.5-1.9-1.7-.2-4.8-.6-7-1-8.9-1.4-17.5-2.5-24.5-3.2-3-.2-6.6-.7-8-1-1.4-.3-4.3-.7-6.5-.9-2.2-.2-7.4-.9-11.5-1.5-4.1-.7-8.8-1.4-10.5-1.6-9.9-1.2-14.6-1.9-21-2.9-5.2-.9-7.9-1.3-14.5-2.1-3-.4-6.2-1-7.1-1.5-.9-.5-2-.4-2.6.2-.8.8-1.3.7-1.7 0-.4-.6-2.7-1.1-5.1-1.1-2.4 0-4.7-.5-5-1-.4-.6-1-.8-1.4-.6-.4.3-4.3-.1-8.7-.9-8.4-1.4-14-2.4-18.9-3.1-1.6-.3-9.5-1.6-17.5-3s-16.1-2.7-18-3c-1.9-.2-4.8-.7-6.5-1.1-1.6-.4-3.7-.8-4.5-.9-.8-.2-3.1-.6-5-.9-1.9-.4-4.6-.9-6-1.1-1.4-.2-4.5-.9-7-1.4-6.3-1.4-10-2-14-2.6-1.9-.3-4.2-.8-5-1.1-.8-.3-2.4-.7-3.5-.8-1.1-.2-3.3-.6-5-1-1.6-.3-4.3-.8-6-1.1-1.6-.2-3.8-.7-4.7-1-1-.3-3-.7-4.5-1-1.6-.3-4.4-.9-6.3-1.4-1.9-.5-4.6-1.1-6-1.4-1.4-.3-3.6-.7-5-1-1.4-.3-3.6-.8-5-1.1-5.1-1.1-6.8-1.5-18.8-4.5-6.7-1.6-12.8-3-13.5-3-.7 0-3.1 1.7-5.4 3.8-2.2 2.1-6.4 5.8-9.3 8.2-2.9 2.5-5.8 5-6.4 5.5-1 .9-10.8 9.1-14.3 12-1.6 1.3-3 2.4-8.3 6.5-2.5 1.9-5 3.9-5.6 4.5-.7.5-2.2 1.8-3.5 2.7-6 4.3-13.5 9.8-14.5 10.6-2 1.7-23.9 16.8-27.9 19.2-2.2 1.3-4.2 2.6-4.5 2.9-.6.7-3.3 2.4-8.5 5.2-2.2 1.1-4.2 2.4-4.5 2.8-.7.8-17.8 9.2-26.5 12.9-6.5 2.8-18.5 6.8-23 7.8-16.2 3.3-21.9 4.1-34 4.6-1.4 0-20.5-1.3-23-1.7-4.8-.6-23.5-5.5-25.8-6.7-1-.5-2.8-1.1-4-1.4-1.1-.2-3.5-1-5.2-1.8-1.6-.8-3.7-1.6-4.5-1.8-.8-.2-1.7-.5-2-.8-.3-.3-3.9-2.3-8-4.3-17.4-8.9-32-19.5-45.5-33.2-21.4-21.6-35.5-45.6-43.8-74.5-1.7-5.8-2.4-9-4.1-19.5-.1-.6-.4-1.5-.7-2-.8-1.4-.3-41.2.6-45.5.4-1.9.9-4.2 1-5 .2-.8.4-1.7.5-2 .1-.3.2-.8.1-1.2 0-.3.7-3 1.5-6 .9-2.9 1.7-5.8 1.8-6.3.1-.6 1.2-3.9 2.5-7.4l2.4-6.3-2.4-1.9c-1.3-1-2.8-1.9-3.2-1.9-.4 0-1.9-.8-3.4-1.7-1.4-1-3.2-1.8-3.9-1.9-.7-.1-2.6-1.1-4.1-2.2-1.5-1.1-4.6-2.8-6.8-3.9s-6.7-3.5-10-5.3c-3.3-1.8-7.8-4.3-10-5.4-2.2-1.2-4.2-2.3-4.5-2.6-.3-.3-1.4-1-2.5-1.6-13.5-7.3-25.1-14-25.3-14.6-.2-.5-.9-.8-1.6-.8-.7 0-3.8-1.5-6.9-3.4-3-1.9-5.8-3.1-6.1-2.8-.3.3-.6 0-.6-.6 0-.7-.4-1.2-.9-1.2s-4.8-2.3-9.6-5c-4.8-2.8-9-5-9.5-5s-1-.3-1.2-.8c-.1-.4-1.9-1.5-3.8-2.5-1.9-.9-6.2-3.2-9.5-5.1-3.3-1.9-8.7-4.9-12-6.7-3.3-1.7-6.2-3.5-6.5-3.8-.3-.4-2-1.3-3.7-2-1.8-.8-3.3-1.8-3.3-2.3 0-.5-.4-.6-1-.3-.5.3-1 .1-1-.5s-.4-.9-.9-.5c-.5.3-1.2.1-1.6-.4-.6-1.1-2.8-2.3-16.5-9.1-5.2-2.6-12-5.5-15-6.5s-6.2-2-7-2.3c-.8-.3-2.1-.6-2.9-.8-.7-.1-3.4-.7-6-1.3-8.2-1.9-33.3-3.6-34.5-2.3zm3.4 42.5c6.4 2 13 5 13 5.9 0 .5.6.8 1.4.8 1.8 0 13.3 11.3 16.9 16.6 6.6 9.8 9.9 27.3 7.6 40-1.2 6.3-4.6 14.8-8 19.9-4.7 6.9-15.1 16.8-17.3 16.5-.5-.1-1.2.3-1.5.8-.5.8-6.4 3.8-9.6 4.8-5 1.6-14.1 3-19 2.8-5.4-.2-11.6-1-12.2-1.5-.2-.1-.6-.2-1-.3-3.1-.5-11.7-4.5-16.1-7.4-5.6-3.7-16.2-14.7-16.2-16.9 0-.7-.4-1.3-1-1.3-.5 0-1-.9-1-2s-.4-2-.8-2c-.7 0-2.3-3.9-3.8-9.5-5-18 .5-39.2 13.4-52.3 6.7-6.8 18.3-13.9 24-14.7 1.5-.2 4.1-.8 5.7-1.3 4.2-1.4 20.1-.7 25.5 1.1z"/><path d="M199.9 543.8c-12.3 3.4-18.9 17.5-13.3 28.4 6.4 12.4 23.8 14.8 33 4.6 5.3-5.8 6.5-15.8 2.9-22.8-1.6-3.1-6.1-7.6-7.8-7.9-.4 0-2-.7-3.5-1.5-2.5-1.3-8.1-1.7-11.3-.8zM66.8 507.6c-.4.3-2.1.7-4 .9-1.8.2-3.3.4-3.3.5 0 .1-1.1.3-2.5.6-1.4.2-6.1 1.4-10.5 2.5s-8.7 2.2-9.5 2.4c-1.7.3-9.2 2.4-19.5 5.3-8.9 2.5-18.4 6-16.6 6.1 2 .1 21.5 10.1 22.3 11.4.4.7.8.8.8.3 0-.4 1.5.3 3.2 1.6 1.8 1.4 5.8 4.2 8.8 6.3 3 2.1 6.2 4.5 7.2 5.4 2.1 2.1 7.5 6.2 8.4 6.4.4.1 1.5-3.2 2.6-7.3 1-4.1 2-8 2.2-8.5.1-.6.8-3 1.5-5.5s1.6-5 2-5.5c.4-.6 1.6-3.3 2.6-6 .9-2.8 3.2-7.8 5-11.3 2.8-5.3 3-6.2 1.6-6.2-1 0-2 .3-2.3.6zM1336.6 599.7c-.2.2-4.3.6-9.2.8-4.9.3-11.6.7-14.9 1-10.2.8-19.6 1.4-30.4 2-5.7.3-10.8.8-11.3 1.1-.4.3-.8 0-.8-.6s-.5-.8-1.2-.4c-.7.5-3.3.9-5.8 1-2.5.1-9.2.5-15 .8-12.2.7-34.6 1.7-44 2-3.6.1-7.1.5-7.7.9-.6.4-1.4.3-1.8-.3-.4-.6-1.1-.8-1.6-.5-.5.3-6.6.8-13.6 1-78.1 2.7-172.6 2.3-225.8-.9-18-1.1-21.5-1.5-22.4-2.1-.5-.3-1.2-.1-1.6.5-.4.6-1 .8-1.5.5-1.1-.7-6.2-1.3-15-2-4.1-.3-9.7-.7-12.5-1-12.6-1.4-12.3-1.4-14.1 1.3-1.9 2.9-2.1 3.2-6.1 8.2-1.6 1.9-4.7 6-7 9s-5.4 6.9-7 8.7c-1.5 1.8-4.4 5.1-6.3 7.4-1.9 2.3-5.2 6.1-7.2 8.3-2 2.3-3.6 4.2-3.4 4.3.2.2 4.8 1.2 8.1 1.8 1.1.2 5.2 1.1 9 2 3.9.9 7.9 1.9 9 2.1 3.2.6 11.8 2.4 14.5 3 1.4.3 3.9.8 5.5 1.1 1.7.3 9.3 1.8 17 3.3l14 2.9 40.5-.4c22.3-.2 44.3-.6 49-.8 15.4-.9 27.4-1.8 33-2.2 3-.3 8.2-.8 11.5-1 3.3-.3 7.8-.8 10-1.1 2.2-.3 6.5-.7 9.5-.9 3-.3 7.1-.7 9-.9 1.9-.3 5.5-.7 8-1 2.5-.2 6.8-.8 9.5-1.2 2.8-.4 6.5-.8 8.2-.8 1.8-.1 3.3-.3 3.3-.7 0-.3 1-.6 2.3-.6 2.9-.2 9.2-1.1 9.2-1.3 0-.1 1.6-.3 3.5-.4 1.9-.2 4.9-.6 6.5-.9 6.5-1.4 10.1-2 13.2-2.1 1.8-.1 3.3-.4 3.3-.7 0-.3.6-.6 1.3-.6 1.7 0 13.9-2.1 18.2-3 5.8-1.3 16.3-3.4 18.5-3.8 1.4-.2 2.5-.4 2.5-.5 0-.2 1-.4 5.5-1.3 1.4-.3 5.9-1.3 10-2.2 4.1-1 8.4-1.9 9.5-2 1.1-.2 2.1-.4 2.3-.5.1-.2.7-.4 1.2-.5.6-.1 1.1-.3 1.3-.5.2-.2 1.8-.5 5.7-1.3 1.4-.3 4.5-1 7-1.7s5.2-1.4 6-1.5c4.4-1 36.5-10 40.5-11.5 1.7-.6 3.7-1.3 4.6-1.5 3.1-.7 18.4-5.5 20.4-6.5 1.9-.9 28.4-10 29.1-10 .2 0 .4-.4.4-.8 0-.9-2.6-1.2-3.4-.5zM162.2 803.2c.7 1.2 2.1 3.1 3.1 4.2.9 1.1 1.7 2.5 1.7 3.2 0 .7.4 1.4.9 1.6.5.1 4.3 4.8 8.4 10.3 4.1 5.5 8.9 11.6 10.6 13.5 1.7 1.9 4.3 4.8 5.8 6.5 11.3 13 27.3 28 42.3 40 4.1 3.3 7.7 6.2 8 6.5.3.3 1.2.9 2.1 1.5.9.5 6.8 4.4 13 8.6 16.2 10.8 30.5 18.6 48.3 26.3 11.4 5 33.8 12.7 43.6 15 8.9 2.1 16 3.7 19 4.2 1.4.3 3.6.7 5 1 2.7.5 5.7.9 13.3 1.9 2.7.4 5.7.8 6.7 1 1.9.4 11.2 1.3 22 2.2 3.6.3 10.7.6 15.7.7 5.1 0 9.3.5 9.3.9s.8.3 1.8-.2c1.1-.6 2.4-.6 3.2-.1.8.5 1.9.5 2.5 0 .6-.5 1.7-.5 2.5 0 .7.4 2.4.4 3.7-.1 1.5-.5 2.3-.5 2.3.2 0 .6.5.7 1.1.4.6-.4 5.2-.8 10.2-1 9.4-.3 21.9-1.3 25.3-1.9 1-.2 4.6-.7 7.9-1.1 3.3-.3 7.9-1 10.1-1.5 2.3-.5 5.6-1.2 7.5-1.4 1.9-.3 5.2-1 7.4-1.5s5.1-1.2 6.5-1.5c1.4-.3 5.2-1.2 8.5-2.1 3.3-.9 6.5-1.8 7-1.9 5.5-1.2 19-5.7 26-8.6 1.1-.5 3.7-1.4 5.8-2.1 3-1.1 3.6-1.7 3.1-3.4-1-3.2-4.8-11-5.7-11.3-.4-.2-.5-.7-.2-1.2.3-.4-.2-1.3-1-2s-1.5-1.9-1.5-2.6c0-.8-.4-1.4-1-1.4-.5 0-1-.5-1-1.1 0-2.1-10.2-14.4-18.8-22.7-4.7-4.5-12.3-10.7-16.8-13.7-8-5.3-24.9-14.5-26.7-14.5-.5 0-2.3-.7-4-1.5-3.5-1.6-12.6-5.1-14.2-5.5-1.3-.3-2.1-.6-8-2.4-2.7-.9-6.1-1.8-7.5-2-1.4-.3-2.5-.5-2.5-.6 0-.1-.8-.3-1.7-.5-.9-.2-5.8-1.3-11-2.4-5.1-1.2-11.1-2.3-13.3-2.6-2.2-.2-5.1-.6-6.5-.9-1.4-.3-4.3-.7-6.5-1.1-2.2-.3-5.3-.7-7-1-1.6-.2-5.5-.7-8.5-1.1-3-.3-6.8-.7-8.5-.9-12.1-1.4-41.5-3.4-74-5-6-.3-15.5-.8-21-1.1-5.5-.2-14.7-.7-20.5-1-17.6-.9-31-1.8-41-3.1-6-.7-11.6-1.3-17-1.8-2.5-.2-4.6-.5-4.7-.6-.5-.3-1.6-.5-7.8-1.3-3.2-.4-6.8-1-8-1.2-1.1-.3-3.6-.7-5.5-1-1.9-.2-5.3-.9-7.5-1.5-5.5-1.5-7.5-2-11.5-2.6-1.9-.3-3.8-1-4.2-1.7-.4-.6-.8-.8-.8-.4s-1.5.2-3.2-.4c-1.8-.5-4.6-1.3-6.3-1.8-1.6-.4-6.1-2-10-3.4-3.8-1.4-7.1-2.6-7.3-2.6-.1 0 .3 1 1 2.2z"/></svg>